<?xml version="1.0" encoding="iso-8859-1"?>
<!-- Uploaded to: SVG Repo, www.svgrepo.com, Generator: SVG Repo Mixer Tools -->
<svg height="800px" width="800px" version="1.1" id="Layer_1" xmlns="http://www.w3.org/2000/svg" xmlns:xlink="http://www.w3.org/1999/xlink" 
	 viewBox="0 0 512 512" xml:space="preserve">
<circle style="fill:#88C5CC;" cx="256" cy="256" r="256"/>
<path style="fill:#F5F5F5;" d="M196,92h176c4.4,0,8,3.6,8,8v328c0,4.4-3.6,8-8,8H124c-4.4,0-8-3.6-8-8V176L196,92z"/>
<path style="fill:#E6E6E6;" d="M188,176c4.4,0,8-3.6,8-8V92l-80,84H188z"/>
<g>
	<ellipse style="fill:#CCCCCC;" cx="188" cy="356" rx="36" ry="20"/>
	<ellipse style="fill:#CCCCCC;" cx="292" cy="316" rx="36" ry="20"/>
	<path style="fill:#CCCCCC;" d="M216,364c-4.42,0-8-3.584-8-8V240c0-3.312,2.04-6.28,5.124-7.468l104-40
		c2.46-0.94,5.228-0.616,7.4,0.876C326.704,194.9,328,197.364,328,200v116c0,4.416-3.584,8-8,8c-4.42,0-8-3.584-8-8V211.648
		l-88,33.844V356C224,360.416,220.416,364,216,364z"/>
	<path style="fill:#CCCCCC;" d="M216,280c-3.212,0-6.244-1.944-7.468-5.128c-1.584-4.12,0.468-8.752,4.592-10.34l104-40
		c4.124-1.584,8.752,0.468,10.336,4.596c1.592,4.12-0.468,8.752-4.592,10.336l-104,40C217.92,279.828,216.952,280,216,280z"/>
</g>
</svg>